<mxfile host="app.diagrams.net" modified="2023-09-14T14:52:37.931Z" agent="Mozilla/5.0 (Windows NT 10.0; Win64; x64) AppleWebKit/537.36 (KHTML, like Gecko) Chrome/115.0.0.0 Safari/537.36 OPR/101.0.0.0" etag="0ZBGpoH4bRXgrR4Gn2ju" version="21.7.1" type="device">
  <diagram name="PÃ¡gina-1" id="CUiqIOyN3c0M99_p4uoG">
    <mxGraphModel dx="1049" dy="568" grid="1" gridSize="10" guides="1" tooltips="1" connect="1" arrows="1" fold="1" page="1" pageScale="1" pageWidth="827" pageHeight="1169" math="0" shadow="0">
      <root>
        <mxCell id="0" />
        <mxCell id="1" parent="0" />
        <mxCell id="QQvizp8mgNF_2mnfgHYH-44" value="" style="shape=folder;fontStyle=1;spacingTop=10;tabWidth=40;tabHeight=14;tabPosition=left;html=1;whiteSpace=wrap;" vertex="1" parent="1">
          <mxGeometry x="40" y="40" width="760" height="476" as="geometry" />
        </mxCell>
        <mxCell id="QQvizp8mgNF_2mnfgHYH-46" value="src" style="text;html=1;strokeColor=none;fillColor=none;align=center;verticalAlign=middle;whiteSpace=wrap;rounded=0;fontSize=18;" vertex="1" parent="1">
          <mxGeometry x="41" y="36" width="50" height="19" as="geometry" />
        </mxCell>
        <mxCell id="QQvizp8mgNF_2mnfgHYH-69" value="" style="group" vertex="1" connectable="0" parent="1">
          <mxGeometry x="70" y="80" width="170" height="414" as="geometry" />
        </mxCell>
        <mxCell id="QQvizp8mgNF_2mnfgHYH-68" value="" style="rounded=0;whiteSpace=wrap;html=1;" vertex="1" parent="QQvizp8mgNF_2mnfgHYH-69">
          <mxGeometry width="90" height="20" as="geometry" />
        </mxCell>
        <mxCell id="QQvizp8mgNF_2mnfgHYH-77" value="" style="group" vertex="1" connectable="0" parent="QQvizp8mgNF_2mnfgHYH-69">
          <mxGeometry y="2.5" width="170" height="411.5" as="geometry" />
        </mxCell>
        <mxCell id="QQvizp8mgNF_2mnfgHYH-66" value="" style="rounded=0;whiteSpace=wrap;html=1;" vertex="1" parent="QQvizp8mgNF_2mnfgHYH-77">
          <mxGeometry y="17.5" width="170" height="394" as="geometry" />
        </mxCell>
        <mxCell id="QQvizp8mgNF_2mnfgHYH-76" value="db" style="text;html=1;strokeColor=none;fillColor=none;align=center;verticalAlign=middle;whiteSpace=wrap;rounded=0;fontSize=15;" vertex="1" parent="QQvizp8mgNF_2mnfgHYH-77">
          <mxGeometry x="15" width="60" height="15" as="geometry" />
        </mxCell>
        <mxCell id="QQvizp8mgNF_2mnfgHYH-117" value="Dockerfile" style="whiteSpace=wrap;html=1;shape=mxgraph.basic.document" vertex="1" parent="QQvizp8mgNF_2mnfgHYH-77">
          <mxGeometry x="25" y="37.5" width="120" height="70" as="geometry" />
        </mxCell>
        <mxCell id="QQvizp8mgNF_2mnfgHYH-118" value="" style="rounded=0;whiteSpace=wrap;html=1;" vertex="1" parent="QQvizp8mgNF_2mnfgHYH-77">
          <mxGeometry x="25" y="142.75" width="120" height="87.25" as="geometry" />
        </mxCell>
        <mxCell id="QQvizp8mgNF_2mnfgHYH-119" value="" style="rounded=0;whiteSpace=wrap;html=1;" vertex="1" parent="QQvizp8mgNF_2mnfgHYH-77">
          <mxGeometry x="25" y="117.5" width="95" height="24.25" as="geometry" />
        </mxCell>
        <mxCell id="QQvizp8mgNF_2mnfgHYH-120" value="sql-scripts" style="text;html=1;strokeColor=none;fillColor=none;align=center;verticalAlign=middle;whiteSpace=wrap;rounded=0;fontSize=15;" vertex="1" parent="QQvizp8mgNF_2mnfgHYH-77">
          <mxGeometry x="26.25" y="122.12" width="92.5" height="15" as="geometry" />
        </mxCell>
        <mxCell id="QQvizp8mgNF_2mnfgHYH-131" value="init.sql" style="whiteSpace=wrap;html=1;shape=mxgraph.basic.document" vertex="1" parent="QQvizp8mgNF_2mnfgHYH-77">
          <mxGeometry x="40.629999999999995" y="157.5" width="88.75" height="54.63" as="geometry" />
        </mxCell>
        <mxCell id="QQvizp8mgNF_2mnfgHYH-83" value="" style="group;fontSize=15;" vertex="1" connectable="0" parent="1">
          <mxGeometry x="470" y="80" width="170" height="414" as="geometry" />
        </mxCell>
        <mxCell id="QQvizp8mgNF_2mnfgHYH-84" value="" style="rounded=0;whiteSpace=wrap;html=1;" vertex="1" parent="QQvizp8mgNF_2mnfgHYH-83">
          <mxGeometry width="90" height="20" as="geometry" />
        </mxCell>
        <mxCell id="QQvizp8mgNF_2mnfgHYH-85" value="" style="group" vertex="1" connectable="0" parent="QQvizp8mgNF_2mnfgHYH-83">
          <mxGeometry y="2.5" width="170" height="411.5" as="geometry" />
        </mxCell>
        <mxCell id="QQvizp8mgNF_2mnfgHYH-86" value="" style="rounded=0;whiteSpace=wrap;html=1;" vertex="1" parent="QQvizp8mgNF_2mnfgHYH-85">
          <mxGeometry y="17.5" width="170" height="394" as="geometry" />
        </mxCell>
        <mxCell id="QQvizp8mgNF_2mnfgHYH-87" value="frontend" style="text;html=1;strokeColor=none;fillColor=none;align=center;verticalAlign=middle;whiteSpace=wrap;rounded=0;fontSize=15;" vertex="1" parent="QQvizp8mgNF_2mnfgHYH-85">
          <mxGeometry x="15" width="60" height="15" as="geometry" />
        </mxCell>
        <mxCell id="QQvizp8mgNF_2mnfgHYH-133" value="" style="rounded=0;whiteSpace=wrap;html=1;" vertex="1" parent="QQvizp8mgNF_2mnfgHYH-85">
          <mxGeometry x="25" y="142.75" width="120" height="37.25" as="geometry" />
        </mxCell>
        <mxCell id="QQvizp8mgNF_2mnfgHYH-134" value="" style="rounded=0;whiteSpace=wrap;html=1;" vertex="1" parent="QQvizp8mgNF_2mnfgHYH-85">
          <mxGeometry x="25" y="117.5" width="65" height="24.25" as="geometry" />
        </mxCell>
        <mxCell id="QQvizp8mgNF_2mnfgHYH-135" value="Dockerfile" style="whiteSpace=wrap;html=1;shape=mxgraph.basic.document" vertex="1" parent="QQvizp8mgNF_2mnfgHYH-85">
          <mxGeometry x="25" y="37.5" width="120" height="70" as="geometry" />
        </mxCell>
        <mxCell id="QQvizp8mgNF_2mnfgHYH-136" value="src" style="text;html=1;strokeColor=none;fillColor=none;align=center;verticalAlign=middle;whiteSpace=wrap;rounded=0;fontSize=15;" vertex="1" parent="QQvizp8mgNF_2mnfgHYH-85">
          <mxGeometry x="43.75" y="122.13" width="27.5" height="15" as="geometry" />
        </mxCell>
        <mxCell id="QQvizp8mgNF_2mnfgHYH-137" value="" style="rounded=0;whiteSpace=wrap;html=1;" vertex="1" parent="QQvizp8mgNF_2mnfgHYH-85">
          <mxGeometry x="25" y="212.75" width="120" height="37.25" as="geometry" />
        </mxCell>
        <mxCell id="QQvizp8mgNF_2mnfgHYH-138" value="" style="rounded=0;whiteSpace=wrap;html=1;" vertex="1" parent="QQvizp8mgNF_2mnfgHYH-85">
          <mxGeometry x="25" y="187.5" width="65" height="24.25" as="geometry" />
        </mxCell>
        <mxCell id="QQvizp8mgNF_2mnfgHYH-139" value="public" style="text;html=1;strokeColor=none;fillColor=none;align=center;verticalAlign=middle;whiteSpace=wrap;rounded=0;fontSize=15;" vertex="1" parent="QQvizp8mgNF_2mnfgHYH-85">
          <mxGeometry x="34.38" y="192.12" width="46.25" height="15" as="geometry" />
        </mxCell>
        <mxCell id="QQvizp8mgNF_2mnfgHYH-140" value=".gitignore" style="whiteSpace=wrap;html=1;shape=mxgraph.basic.document" vertex="1" parent="QQvizp8mgNF_2mnfgHYH-85">
          <mxGeometry x="25" y="257.5" width="125" height="62.5" as="geometry" />
        </mxCell>
        <mxCell id="QQvizp8mgNF_2mnfgHYH-141" value="package.json" style="whiteSpace=wrap;html=1;shape=mxgraph.basic.document" vertex="1" parent="QQvizp8mgNF_2mnfgHYH-85">
          <mxGeometry x="25" y="327.5" width="125" height="62.5" as="geometry" />
        </mxCell>
        <mxCell id="QQvizp8mgNF_2mnfgHYH-88" value="docker-compose.yml" style="whiteSpace=wrap;html=1;shape=mxgraph.basic.document" vertex="1" parent="1">
          <mxGeometry x="660" y="100" width="120" height="70" as="geometry" />
        </mxCell>
        <mxCell id="QQvizp8mgNF_2mnfgHYH-79" value="" style="rounded=0;whiteSpace=wrap;html=1;" vertex="1" parent="1">
          <mxGeometry x="270" y="80" width="90" height="20" as="geometry" />
        </mxCell>
        <mxCell id="QQvizp8mgNF_2mnfgHYH-80" value="" style="group" vertex="1" connectable="0" parent="1">
          <mxGeometry x="270" y="82.5" width="170" height="411.5" as="geometry" />
        </mxCell>
        <mxCell id="QQvizp8mgNF_2mnfgHYH-81" value="" style="rounded=0;whiteSpace=wrap;html=1;" vertex="1" parent="QQvizp8mgNF_2mnfgHYH-80">
          <mxGeometry y="17.5" width="170" height="394" as="geometry" />
        </mxCell>
        <mxCell id="QQvizp8mgNF_2mnfgHYH-82" value="backend" style="text;html=1;strokeColor=none;fillColor=none;align=center;verticalAlign=middle;whiteSpace=wrap;rounded=0;fontSize=15;" vertex="1" parent="QQvizp8mgNF_2mnfgHYH-80">
          <mxGeometry x="15" width="60" height="15" as="geometry" />
        </mxCell>
        <mxCell id="QQvizp8mgNF_2mnfgHYH-89" value="Dockerfile" style="whiteSpace=wrap;html=1;shape=mxgraph.basic.document" vertex="1" parent="QQvizp8mgNF_2mnfgHYH-80">
          <mxGeometry x="25" y="37.5" width="120" height="70" as="geometry" />
        </mxCell>
        <mxCell id="QQvizp8mgNF_2mnfgHYH-95" value="" style="rounded=0;whiteSpace=wrap;html=1;" vertex="1" parent="QQvizp8mgNF_2mnfgHYH-80">
          <mxGeometry x="25" y="142.75" width="120" height="196.75" as="geometry" />
        </mxCell>
        <mxCell id="QQvizp8mgNF_2mnfgHYH-103" value="" style="rounded=0;whiteSpace=wrap;html=1;" vertex="1" parent="QQvizp8mgNF_2mnfgHYH-80">
          <mxGeometry x="25" y="117.5" width="65" height="24.25" as="geometry" />
        </mxCell>
        <mxCell id="QQvizp8mgNF_2mnfgHYH-104" value="app" style="text;html=1;strokeColor=none;fillColor=none;align=center;verticalAlign=middle;whiteSpace=wrap;rounded=0;fontSize=15;" vertex="1" parent="QQvizp8mgNF_2mnfgHYH-80">
          <mxGeometry x="27.5" y="122.12" width="60" height="15" as="geometry" />
        </mxCell>
        <mxCell id="QQvizp8mgNF_2mnfgHYH-105" value="main.py" style="whiteSpace=wrap;html=1;shape=mxgraph.basic.document" vertex="1" parent="QQvizp8mgNF_2mnfgHYH-80">
          <mxGeometry x="41.25" y="155" width="87.5" height="52.5" as="geometry" />
        </mxCell>
        <mxCell id="QQvizp8mgNF_2mnfgHYH-106" value=".gitignore" style="whiteSpace=wrap;html=1;shape=mxgraph.basic.document" vertex="1" parent="QQvizp8mgNF_2mnfgHYH-80">
          <mxGeometry x="41.25" y="213.81" width="88.75" height="54.63" as="geometry" />
        </mxCell>
        <mxCell id="QQvizp8mgNF_2mnfgHYH-116" value="requirements.txt" style="whiteSpace=wrap;html=1;shape=mxgraph.basic.document" vertex="1" parent="QQvizp8mgNF_2mnfgHYH-80">
          <mxGeometry x="41.25" y="275" width="87.5" height="52.5" as="geometry" />
        </mxCell>
      </root>
    </mxGraphModel>
  </diagram>
</mxfile>
